<?xml version="1.0" standalone="no"?>
<!DOCTYPE svg PUBLIC "-//W3C//DTD SVG 20010904//EN"
"http://www.w3.org/TR/2001/REC-SVG-20010904/DTD/svg10.dtd">
<svg xmlns="http://www.w3.org/2000/svg" xmlns:xlink="http://www.w3.org/1999/xlink"
    width="17.18cm" height="21.70cm" viewBox="0 0 487 615 ">
<title>SVG Picture created as ug.svg </title>
<desc>Picture generated by wxSVG v0100 </desc>
<g style="fill:black; stroke:black; stroke-width:1">
</g>
<g style="fill:#FF0000; fill-opacity:1.00; stroke:#FF0000; stroke-opacity:1.00; stroke-linecap:round; stroke-linejoin:round; stroke-width:3" 
   transform="translate(0.00 0.00) scale(1.00 1.00)">
<ellipse cx="25" cy="265" rx="5" ry="5"  /> 
 <text x="25" y="252" style="font-family:Arial; font-weight:bold; font-style:normal; font-size:10pt; fill:#FF0000; fill-opacity:1.00; stroke:#FF0000; stroke-opacity:1.00; stroke-width:0;"  transform="rotate( -0.00 25 252 )  " ></text> 
 <text x="13" y="289" style="font-family:Arial; font-weight:bold; font-style:normal; font-size:10pt; fill:#FF0000; fill-opacity:1.00; stroke:#FF0000; stroke-opacity:1.00; stroke-width:0;"  transform="rotate( -0.00 13 289 )  " >1:1</text> 
</g>
<g style="fill:#FF0000; fill-opacity:1.00; stroke:#FF0000; stroke-opacity:1.00; stroke-linecap:round; stroke-linejoin:round; stroke-width:4" 
   transform="translate(0.00 0.00) scale(1.00 1.00)">
<path d="M30 265 L90 65" /> 
<path d="M90 65 L150 65" /> 
</g>
<g style="fill:#FF0000; fill-opacity:1.00; stroke:#000000; stroke-opacity:1.00; stroke-linecap:round; stroke-linejoin:round; stroke-width:2" 
   transform="translate(0.00 0.00) scale(1.00 1.00)">
<path d="M30 265 L30 265" /> 
 <text x="93" y="58" style="font-family:Arial; font-weight:bold; font-style:normal; font-size:10pt; fill:#FF0000; fill-opacity:1.00; stroke:#FF0000; stroke-opacity:1.00; stroke-width:0;"  transform="rotate( -0.00 93 58 )  " >offer_0</text> 
 <text x="93" y="64" style="font-family:Arial; font-weight:bold; font-style:normal; font-size:10pt; fill:#FF0000; fill-opacity:1.00; stroke:#FF0000; stroke-opacity:1.00; stroke-width:0;"  transform="rotate( -0.00 93 64 )  " ></text> 
</g>
<g style="fill:#0000FF; fill-opacity:1.00; stroke:#0000FF; stroke-opacity:1.00; stroke-linecap:round; stroke-linejoin:round; stroke-width:3" 
   transform="translate(0.00 0.00) scale(1.00 1.00)">
<ellipse cx="155" cy="65" rx="5" ry="5"  /> 
 <text x="155" y="52" style="font-family:Arial; font-weight:bold; font-style:normal; font-size:10pt; fill:#0000FF; fill-opacity:1.00; stroke:#0000FF; stroke-opacity:1.00; stroke-width:0;"  transform="rotate( -0.00 155 52 )  " ></text> 
 <text x="143" y="89" style="font-family:Arial; font-weight:bold; font-style:normal; font-size:10pt; fill:#0000FF; fill-opacity:1.00; stroke:#0000FF; stroke-opacity:1.00; stroke-width:0;"  transform="rotate( -0.00 143 89 )  " >2:1</text> 
</g>
<g style="fill:#0000FF; fill-opacity:1.00; stroke:#0000FF; stroke-opacity:1.00; stroke-linecap:round; stroke-linejoin:round; stroke-width:4" 
   transform="translate(0.00 0.00) scale(1.00 1.00)">
<path d="M160 65 L220 40" /> 
<path d="M220 40 L320 40" /> 
</g>
<g style="fill:#0000FF; fill-opacity:1.00; stroke:#000000; stroke-opacity:1.00; stroke-linecap:round; stroke-linejoin:round; stroke-width:2" 
   transform="translate(0.00 0.00) scale(1.00 1.00)">
<path d="M160 65 L160 65" /> 
 <text x="223" y="33" style="font-family:Arial; font-weight:bold; font-style:normal; font-size:10pt; fill:#0000FF; fill-opacity:1.00; stroke:#0000FF; stroke-opacity:1.00; stroke-width:0;"  transform="rotate( -0.00 223 33 )  " >accept_FALSE</text> 
 <text x="223" y="39" style="font-family:Arial; font-weight:bold; font-style:normal; font-size:10pt; fill:#0000FF; fill-opacity:1.00; stroke:#0000FF; stroke-opacity:1.00; stroke-width:0;"  transform="rotate( -0.00 223 39 )  " ></text> 
</g>
<g style="fill:#000000; fill-opacity:1.00; stroke:#000000; stroke-opacity:1.00; stroke-linecap:round; stroke-linejoin:round; stroke-width:3" 
   transform="translate(0.00 0.00) scale(1.00 1.00)">
<ellipse cx="325" cy="40" rx="5" ry="5"  /> 
 <text x="325" y="27" style="font-family:Arial; font-weight:bold; font-style:normal; font-size:10pt; fill:#000000; fill-opacity:1.00; stroke:#000000; stroke-opacity:1.00; stroke-width:0;"  transform="rotate( -0.00 325 27 )  " ></text> 
 <text x="325" y="45" style="font-family:Arial; font-weight:bold; font-style:normal; font-size:10pt; fill:#000000; fill-opacity:1.00; stroke:#000000; stroke-opacity:1.00; stroke-width:0;"  transform="rotate( -0.00 325 45 )  " ></text> 
 <text x="350" y="45" style="font-family:Arial; font-weight:bold; font-style:normal; font-size:9pt; fill:#FF0000; fill-opacity:1.00; stroke:#FF0000; stroke-opacity:1.00; stroke-width:0;"  transform="rotate( -0.00 350 45 )  " >0</text> 
 <text x="368" y="45" style="font-family:Arial; font-weight:bold; font-style:normal; font-size:9pt; fill:#0000FF; fill-opacity:1.00; stroke:#0000FF; stroke-opacity:1.00; stroke-width:0;"  transform="rotate( -0.00 368 45 )  " >0</text> 
</g>
<g style="fill:#000000; fill-opacity:1.00; stroke:#0000FF; stroke-opacity:1.00; stroke-linecap:round; stroke-linejoin:round; stroke-width:4" 
   transform="translate(0.00 0.00) scale(1.00 1.00)">
<path d="M160 65 L220 90" /> 
<path d="M220 90 L320 90" /> 
</g>
<g style="fill:#000000; fill-opacity:1.00; stroke:#000000; stroke-opacity:1.00; stroke-linecap:round; stroke-linejoin:round; stroke-width:2" 
   transform="translate(0.00 0.00) scale(1.00 1.00)">
<path d="M160 65 L160 65" /> 
 <text x="223" y="83" style="font-family:Arial; font-weight:bold; font-style:normal; font-size:10pt; fill:#0000FF; fill-opacity:1.00; stroke:#0000FF; stroke-opacity:1.00; stroke-width:0;"  transform="rotate( -0.00 223 83 )  " >accept_TRUE</text> 
 <text x="223" y="89" style="font-family:Arial; font-weight:bold; font-style:normal; font-size:10pt; fill:#0000FF; fill-opacity:1.00; stroke:#0000FF; stroke-opacity:1.00; stroke-width:0;"  transform="rotate( -0.00 223 89 )  " ></text> 
</g>
<g style="fill:#000000; fill-opacity:1.00; stroke:#000000; stroke-opacity:1.00; stroke-linecap:round; stroke-linejoin:round; stroke-width:3" 
   transform="translate(0.00 0.00) scale(1.00 1.00)">
<ellipse cx="325" cy="90" rx="5" ry="5"  /> 
 <text x="325" y="77" style="font-family:Arial; font-weight:bold; font-style:normal; font-size:10pt; fill:#000000; fill-opacity:1.00; stroke:#000000; stroke-opacity:1.00; stroke-width:0;"  transform="rotate( -0.00 325 77 )  " ></text> 
 <text x="325" y="95" style="font-family:Arial; font-weight:bold; font-style:normal; font-size:10pt; fill:#000000; fill-opacity:1.00; stroke:#000000; stroke-opacity:1.00; stroke-width:0;"  transform="rotate( -0.00 325 95 )  " ></text> 
 <text x="350" y="95" style="font-family:Arial; font-weight:bold; font-style:normal; font-size:9pt; fill:#FF0000; fill-opacity:1.00; stroke:#FF0000; stroke-opacity:1.00; stroke-width:0;"  transform="rotate( -0.00 350 95 )  " >4</text> 
 <text x="368" y="95" style="font-family:Arial; font-weight:bold; font-style:normal; font-size:9pt; fill:#0000FF; fill-opacity:1.00; stroke:#0000FF; stroke-opacity:1.00; stroke-width:0;"  transform="rotate( -0.00 368 95 )  " >0</text> 
</g>
<g style="fill:#000000; fill-opacity:1.00; stroke:#FF0000; stroke-opacity:1.00; stroke-linecap:round; stroke-linejoin:round; stroke-width:4" 
   transform="translate(0.00 0.00) scale(1.00 1.00)">
<path d="M30 265 L90 165" /> 
<path d="M90 165 L150 165" /> 
</g>
<g style="fill:#000000; fill-opacity:1.00; stroke:#000000; stroke-opacity:1.00; stroke-linecap:round; stroke-linejoin:round; stroke-width:2" 
   transform="translate(0.00 0.00) scale(1.00 1.00)">
<path d="M30 265 L30 265" /> 
 <text x="93" y="158" style="font-family:Arial; font-weight:bold; font-style:normal; font-size:10pt; fill:#FF0000; fill-opacity:1.00; stroke:#FF0000; stroke-opacity:1.00; stroke-width:0;"  transform="rotate( -0.00 93 158 )  " >offer_1</text> 
 <text x="93" y="164" style="font-family:Arial; font-weight:bold; font-style:normal; font-size:10pt; fill:#FF0000; fill-opacity:1.00; stroke:#FF0000; stroke-opacity:1.00; stroke-width:0;"  transform="rotate( -0.00 93 164 )  " ></text> 
</g>
<g style="fill:#0000FF; fill-opacity:1.00; stroke:#0000FF; stroke-opacity:1.00; stroke-linecap:round; stroke-linejoin:round; stroke-width:3" 
   transform="translate(0.00 0.00) scale(1.00 1.00)">
<ellipse cx="155" cy="165" rx="5" ry="5"  /> 
 <text x="155" y="152" style="font-family:Arial; font-weight:bold; font-style:normal; font-size:10pt; fill:#0000FF; fill-opacity:1.00; stroke:#0000FF; stroke-opacity:1.00; stroke-width:0;"  transform="rotate( -0.00 155 152 )  " ></text> 
 <text x="143" y="189" style="font-family:Arial; font-weight:bold; font-style:normal; font-size:10pt; fill:#0000FF; fill-opacity:1.00; stroke:#0000FF; stroke-opacity:1.00; stroke-width:0;"  transform="rotate( -0.00 143 189 )  " >2:2</text> 
</g>
<g style="fill:#0000FF; fill-opacity:1.00; stroke:#0000FF; stroke-opacity:1.00; stroke-linecap:round; stroke-linejoin:round; stroke-width:4" 
   transform="translate(0.00 0.00) scale(1.00 1.00)">
<path d="M160 165 L220 140" /> 
<path d="M220 140 L320 140" /> 
</g>
<g style="fill:#0000FF; fill-opacity:1.00; stroke:#000000; stroke-opacity:1.00; stroke-linecap:round; stroke-linejoin:round; stroke-width:2" 
   transform="translate(0.00 0.00) scale(1.00 1.00)">
<path d="M160 165 L160 165" /> 
 <text x="223" y="133" style="font-family:Arial; font-weight:bold; font-style:normal; font-size:10pt; fill:#0000FF; fill-opacity:1.00; stroke:#0000FF; stroke-opacity:1.00; stroke-width:0;"  transform="rotate( -0.00 223 133 )  " >accept_FALSE</text> 
 <text x="223" y="139" style="font-family:Arial; font-weight:bold; font-style:normal; font-size:10pt; fill:#0000FF; fill-opacity:1.00; stroke:#0000FF; stroke-opacity:1.00; stroke-width:0;"  transform="rotate( -0.00 223 139 )  " ></text> 
</g>
<g style="fill:#000000; fill-opacity:1.00; stroke:#000000; stroke-opacity:1.00; stroke-linecap:round; stroke-linejoin:round; stroke-width:3" 
   transform="translate(0.00 0.00) scale(1.00 1.00)">
<ellipse cx="325" cy="140" rx="5" ry="5"  /> 
 <text x="325" y="127" style="font-family:Arial; font-weight:bold; font-style:normal; font-size:10pt; fill:#000000; fill-opacity:1.00; stroke:#000000; stroke-opacity:1.00; stroke-width:0;"  transform="rotate( -0.00 325 127 )  " ></text> 
 <text x="325" y="145" style="font-family:Arial; font-weight:bold; font-style:normal; font-size:10pt; fill:#000000; fill-opacity:1.00; stroke:#000000; stroke-opacity:1.00; stroke-width:0;"  transform="rotate( -0.00 325 145 )  " ></text> 
 <text x="350" y="145" style="font-family:Arial; font-weight:bold; font-style:normal; font-size:9pt; fill:#FF0000; fill-opacity:1.00; stroke:#FF0000; stroke-opacity:1.00; stroke-width:0;"  transform="rotate( -0.00 350 145 )  " >0</text> 
 <text x="368" y="145" style="font-family:Arial; font-weight:bold; font-style:normal; font-size:9pt; fill:#0000FF; fill-opacity:1.00; stroke:#0000FF; stroke-opacity:1.00; stroke-width:0;"  transform="rotate( -0.00 368 145 )  " >0</text> 
</g>
<g style="fill:#000000; fill-opacity:1.00; stroke:#0000FF; stroke-opacity:1.00; stroke-linecap:round; stroke-linejoin:round; stroke-width:4" 
   transform="translate(0.00 0.00) scale(1.00 1.00)">
<path d="M160 165 L220 190" /> 
<path d="M220 190 L320 190" /> 
</g>
<g style="fill:#000000; fill-opacity:1.00; stroke:#000000; stroke-opacity:1.00; stroke-linecap:round; stroke-linejoin:round; stroke-width:2" 
   transform="translate(0.00 0.00) scale(1.00 1.00)">
<path d="M160 165 L160 165" /> 
 <text x="223" y="183" style="font-family:Arial; font-weight:bold; font-style:normal; font-size:10pt; fill:#0000FF; fill-opacity:1.00; stroke:#0000FF; stroke-opacity:1.00; stroke-width:0;"  transform="rotate( -0.00 223 183 )  " >accept_TRUE</text> 
 <text x="223" y="189" style="font-family:Arial; font-weight:bold; font-style:normal; font-size:10pt; fill:#0000FF; fill-opacity:1.00; stroke:#0000FF; stroke-opacity:1.00; stroke-width:0;"  transform="rotate( -0.00 223 189 )  " ></text> 
</g>
<g style="fill:#000000; fill-opacity:1.00; stroke:#000000; stroke-opacity:1.00; stroke-linecap:round; stroke-linejoin:round; stroke-width:3" 
   transform="translate(0.00 0.00) scale(1.00 1.00)">
<ellipse cx="325" cy="190" rx="5" ry="5"  /> 
 <text x="325" y="177" style="font-family:Arial; font-weight:bold; font-style:normal; font-size:10pt; fill:#000000; fill-opacity:1.00; stroke:#000000; stroke-opacity:1.00; stroke-width:0;"  transform="rotate( -0.00 325 177 )  " ></text> 
 <text x="325" y="195" style="font-family:Arial; font-weight:bold; font-style:normal; font-size:10pt; fill:#000000; fill-opacity:1.00; stroke:#000000; stroke-opacity:1.00; stroke-width:0;"  transform="rotate( -0.00 325 195 )  " ></text> 
 <text x="350" y="195" style="font-family:Arial; font-weight:bold; font-style:normal; font-size:9pt; fill:#FF0000; fill-opacity:1.00; stroke:#FF0000; stroke-opacity:1.00; stroke-width:0;"  transform="rotate( -0.00 350 195 )  " >3</text> 
 <text x="368" y="195" style="font-family:Arial; font-weight:bold; font-style:normal; font-size:9pt; fill:#0000FF; fill-opacity:1.00; stroke:#0000FF; stroke-opacity:1.00; stroke-width:0;"  transform="rotate( -0.00 368 195 )  " >1</text> 
</g>
<g style="fill:#000000; fill-opacity:1.00; stroke:#FF0000; stroke-opacity:1.00; stroke-linecap:round; stroke-linejoin:round; stroke-width:4" 
   transform="translate(0.00 0.00) scale(1.00 1.00)">
<path d="M30 265 L90 265" /> 
<path d="M90 265 L150 265" /> 
</g>
<g style="fill:#000000; fill-opacity:1.00; stroke:#000000; stroke-opacity:1.00; stroke-linecap:round; stroke-linejoin:round; stroke-width:2" 
   transform="translate(0.00 0.00) scale(1.00 1.00)">
<path d="M30 265 L30 265" /> 
 <text x="93" y="258" style="font-family:Arial; font-weight:bold; font-style:normal; font-size:10pt; fill:#FF0000; fill-opacity:1.00; stroke:#FF0000; stroke-opacity:1.00; stroke-width:0;"  transform="rotate( -0.00 93 258 )  " >offer_2</text> 
 <text x="93" y="264" style="font-family:Arial; font-weight:bold; font-style:normal; font-size:10pt; fill:#FF0000; fill-opacity:1.00; stroke:#FF0000; stroke-opacity:1.00; stroke-width:0;"  transform="rotate( -0.00 93 264 )  " ></text> 
</g>
<g style="fill:#0000FF; fill-opacity:1.00; stroke:#0000FF; stroke-opacity:1.00; stroke-linecap:round; stroke-linejoin:round; stroke-width:3" 
   transform="translate(0.00 0.00) scale(1.00 1.00)">
<ellipse cx="155" cy="265" rx="5" ry="5"  /> 
 <text x="155" y="252" style="font-family:Arial; font-weight:bold; font-style:normal; font-size:10pt; fill:#0000FF; fill-opacity:1.00; stroke:#0000FF; stroke-opacity:1.00; stroke-width:0;"  transform="rotate( -0.00 155 252 )  " ></text> 
 <text x="143" y="289" style="font-family:Arial; font-weight:bold; font-style:normal; font-size:10pt; fill:#0000FF; fill-opacity:1.00; stroke:#0000FF; stroke-opacity:1.00; stroke-width:0;"  transform="rotate( -0.00 143 289 )  " >2:3</text> 
</g>
<g style="fill:#0000FF; fill-opacity:1.00; stroke:#0000FF; stroke-opacity:1.00; stroke-linecap:round; stroke-linejoin:round; stroke-width:4" 
   transform="translate(0.00 0.00) scale(1.00 1.00)">
<path d="M160 265 L220 240" /> 
<path d="M220 240 L320 240" /> 
</g>
<g style="fill:#0000FF; fill-opacity:1.00; stroke:#000000; stroke-opacity:1.00; stroke-linecap:round; stroke-linejoin:round; stroke-width:2" 
   transform="translate(0.00 0.00) scale(1.00 1.00)">
<path d="M160 265 L160 265" /> 
 <text x="223" y="233" style="font-family:Arial; font-weight:bold; font-style:normal; font-size:10pt; fill:#0000FF; fill-opacity:1.00; stroke:#0000FF; stroke-opacity:1.00; stroke-width:0;"  transform="rotate( -0.00 223 233 )  " >accept_FALSE</text> 
 <text x="223" y="239" style="font-family:Arial; font-weight:bold; font-style:normal; font-size:10pt; fill:#0000FF; fill-opacity:1.00; stroke:#0000FF; stroke-opacity:1.00; stroke-width:0;"  transform="rotate( -0.00 223 239 )  " ></text> 
</g>
<g style="fill:#000000; fill-opacity:1.00; stroke:#000000; stroke-opacity:1.00; stroke-linecap:round; stroke-linejoin:round; stroke-width:3" 
   transform="translate(0.00 0.00) scale(1.00 1.00)">
<ellipse cx="325" cy="240" rx="5" ry="5"  /> 
 <text x="325" y="227" style="font-family:Arial; font-weight:bold; font-style:normal; font-size:10pt; fill:#000000; fill-opacity:1.00; stroke:#000000; stroke-opacity:1.00; stroke-width:0;"  transform="rotate( -0.00 325 227 )  " ></text> 
 <text x="325" y="245" style="font-family:Arial; font-weight:bold; font-style:normal; font-size:10pt; fill:#000000; fill-opacity:1.00; stroke:#000000; stroke-opacity:1.00; stroke-width:0;"  transform="rotate( -0.00 325 245 )  " ></text> 
 <text x="350" y="245" style="font-family:Arial; font-weight:bold; font-style:normal; font-size:9pt; fill:#FF0000; fill-opacity:1.00; stroke:#FF0000; stroke-opacity:1.00; stroke-width:0;"  transform="rotate( -0.00 350 245 )  " >0</text> 
 <text x="368" y="245" style="font-family:Arial; font-weight:bold; font-style:normal; font-size:9pt; fill:#0000FF; fill-opacity:1.00; stroke:#0000FF; stroke-opacity:1.00; stroke-width:0;"  transform="rotate( -0.00 368 245 )  " >0</text> 
</g>
<g style="fill:#000000; fill-opacity:1.00; stroke:#0000FF; stroke-opacity:1.00; stroke-linecap:round; stroke-linejoin:round; stroke-width:4" 
   transform="translate(0.00 0.00) scale(1.00 1.00)">
<path d="M160 265 L220 290" /> 
<path d="M220 290 L320 290" /> 
</g>
<g style="fill:#000000; fill-opacity:1.00; stroke:#000000; stroke-opacity:1.00; stroke-linecap:round; stroke-linejoin:round; stroke-width:2" 
   transform="translate(0.00 0.00) scale(1.00 1.00)">
<path d="M160 265 L160 265" /> 
 <text x="223" y="283" style="font-family:Arial; font-weight:bold; font-style:normal; font-size:10pt; fill:#0000FF; fill-opacity:1.00; stroke:#0000FF; stroke-opacity:1.00; stroke-width:0;"  transform="rotate( -0.00 223 283 )  " >accept_TRUE</text> 
 <text x="223" y="289" style="font-family:Arial; font-weight:bold; font-style:normal; font-size:10pt; fill:#0000FF; fill-opacity:1.00; stroke:#0000FF; stroke-opacity:1.00; stroke-width:0;"  transform="rotate( -0.00 223 289 )  " ></text> 
</g>
<g style="fill:#000000; fill-opacity:1.00; stroke:#000000; stroke-opacity:1.00; stroke-linecap:round; stroke-linejoin:round; stroke-width:3" 
   transform="translate(0.00 0.00) scale(1.00 1.00)">
<ellipse cx="325" cy="290" rx="5" ry="5"  /> 
 <text x="325" y="277" style="font-family:Arial; font-weight:bold; font-style:normal; font-size:10pt; fill:#000000; fill-opacity:1.00; stroke:#000000; stroke-opacity:1.00; stroke-width:0;"  transform="rotate( -0.00 325 277 )  " ></text> 
 <text x="325" y="295" style="font-family:Arial; font-weight:bold; font-style:normal; font-size:10pt; fill:#000000; fill-opacity:1.00; stroke:#000000; stroke-opacity:1.00; stroke-width:0;"  transform="rotate( -0.00 325 295 )  " ></text> 
 <text x="350" y="295" style="font-family:Arial; font-weight:bold; font-style:normal; font-size:9pt; fill:#FF0000; fill-opacity:1.00; stroke:#FF0000; stroke-opacity:1.00; stroke-width:0;"  transform="rotate( -0.00 350 295 )  " >2</text> 
 <text x="368" y="295" style="font-family:Arial; font-weight:bold; font-style:normal; font-size:9pt; fill:#0000FF; fill-opacity:1.00; stroke:#0000FF; stroke-opacity:1.00; stroke-width:0;"  transform="rotate( -0.00 368 295 )  " >2</text> 
</g>
<g style="fill:#000000; fill-opacity:1.00; stroke:#FF0000; stroke-opacity:1.00; stroke-linecap:round; stroke-linejoin:round; stroke-width:4" 
   transform="translate(0.00 0.00) scale(1.00 1.00)">
<path d="M30 265 L90 365" /> 
<path d="M90 365 L150 365" /> 
</g>
<g style="fill:#000000; fill-opacity:1.00; stroke:#000000; stroke-opacity:1.00; stroke-linecap:round; stroke-linejoin:round; stroke-width:2" 
   transform="translate(0.00 0.00) scale(1.00 1.00)">
<path d="M30 265 L30 265" /> 
 <text x="93" y="358" style="font-family:Arial; font-weight:bold; font-style:normal; font-size:10pt; fill:#FF0000; fill-opacity:1.00; stroke:#FF0000; stroke-opacity:1.00; stroke-width:0;"  transform="rotate( -0.00 93 358 )  " >offer_3</text> 
 <text x="93" y="364" style="font-family:Arial; font-weight:bold; font-style:normal; font-size:10pt; fill:#FF0000; fill-opacity:1.00; stroke:#FF0000; stroke-opacity:1.00; stroke-width:0;"  transform="rotate( -0.00 93 364 )  " ></text> 
</g>
<g style="fill:#0000FF; fill-opacity:1.00; stroke:#0000FF; stroke-opacity:1.00; stroke-linecap:round; stroke-linejoin:round; stroke-width:3" 
   transform="translate(0.00 0.00) scale(1.00 1.00)">
<ellipse cx="155" cy="365" rx="5" ry="5"  /> 
 <text x="155" y="352" style="font-family:Arial; font-weight:bold; font-style:normal; font-size:10pt; fill:#0000FF; fill-opacity:1.00; stroke:#0000FF; stroke-opacity:1.00; stroke-width:0;"  transform="rotate( -0.00 155 352 )  " ></text> 
 <text x="143" y="389" style="font-family:Arial; font-weight:bold; font-style:normal; font-size:10pt; fill:#0000FF; fill-opacity:1.00; stroke:#0000FF; stroke-opacity:1.00; stroke-width:0;"  transform="rotate( -0.00 143 389 )  " >2:4</text> 
</g>
<g style="fill:#0000FF; fill-opacity:1.00; stroke:#0000FF; stroke-opacity:1.00; stroke-linecap:round; stroke-linejoin:round; stroke-width:4" 
   transform="translate(0.00 0.00) scale(1.00 1.00)">
<path d="M160 365 L220 340" /> 
<path d="M220 340 L320 340" /> 
</g>
<g style="fill:#0000FF; fill-opacity:1.00; stroke:#000000; stroke-opacity:1.00; stroke-linecap:round; stroke-linejoin:round; stroke-width:2" 
   transform="translate(0.00 0.00) scale(1.00 1.00)">
<path d="M160 365 L160 365" /> 
 <text x="223" y="333" style="font-family:Arial; font-weight:bold; font-style:normal; font-size:10pt; fill:#0000FF; fill-opacity:1.00; stroke:#0000FF; stroke-opacity:1.00; stroke-width:0;"  transform="rotate( -0.00 223 333 )  " >accept_FALSE</text> 
 <text x="223" y="339" style="font-family:Arial; font-weight:bold; font-style:normal; font-size:10pt; fill:#0000FF; fill-opacity:1.00; stroke:#0000FF; stroke-opacity:1.00; stroke-width:0;"  transform="rotate( -0.00 223 339 )  " ></text> 
</g>
<g style="fill:#000000; fill-opacity:1.00; stroke:#000000; stroke-opacity:1.00; stroke-linecap:round; stroke-linejoin:round; stroke-width:3" 
   transform="translate(0.00 0.00) scale(1.00 1.00)">
<ellipse cx="325" cy="340" rx="5" ry="5"  /> 
 <text x="325" y="327" style="font-family:Arial; font-weight:bold; font-style:normal; font-size:10pt; fill:#000000; fill-opacity:1.00; stroke:#000000; stroke-opacity:1.00; stroke-width:0;"  transform="rotate( -0.00 325 327 )  " ></text> 
 <text x="325" y="345" style="font-family:Arial; font-weight:bold; font-style:normal; font-size:10pt; fill:#000000; fill-opacity:1.00; stroke:#000000; stroke-opacity:1.00; stroke-width:0;"  transform="rotate( -0.00 325 345 )  " ></text> 
 <text x="350" y="345" style="font-family:Arial; font-weight:bold; font-style:normal; font-size:9pt; fill:#FF0000; fill-opacity:1.00; stroke:#FF0000; stroke-opacity:1.00; stroke-width:0;"  transform="rotate( -0.00 350 345 )  " >0</text> 
 <text x="368" y="345" style="font-family:Arial; font-weight:bold; font-style:normal; font-size:9pt; fill:#0000FF; fill-opacity:1.00; stroke:#0000FF; stroke-opacity:1.00; stroke-width:0;"  transform="rotate( -0.00 368 345 )  " >0</text> 
</g>
<g style="fill:#000000; fill-opacity:1.00; stroke:#0000FF; stroke-opacity:1.00; stroke-linecap:round; stroke-linejoin:round; stroke-width:4" 
   transform="translate(0.00 0.00) scale(1.00 1.00)">
<path d="M160 365 L220 390" /> 
<path d="M220 390 L320 390" /> 
</g>
<g style="fill:#000000; fill-opacity:1.00; stroke:#000000; stroke-opacity:1.00; stroke-linecap:round; stroke-linejoin:round; stroke-width:2" 
   transform="translate(0.00 0.00) scale(1.00 1.00)">
<path d="M160 365 L160 365" /> 
 <text x="223" y="383" style="font-family:Arial; font-weight:bold; font-style:normal; font-size:10pt; fill:#0000FF; fill-opacity:1.00; stroke:#0000FF; stroke-opacity:1.00; stroke-width:0;"  transform="rotate( -0.00 223 383 )  " >accept_TRUE</text> 
 <text x="223" y="389" style="font-family:Arial; font-weight:bold; font-style:normal; font-size:10pt; fill:#0000FF; fill-opacity:1.00; stroke:#0000FF; stroke-opacity:1.00; stroke-width:0;"  transform="rotate( -0.00 223 389 )  " ></text> 
</g>
<g style="fill:#000000; fill-opacity:1.00; stroke:#000000; stroke-opacity:1.00; stroke-linecap:round; stroke-linejoin:round; stroke-width:3" 
   transform="translate(0.00 0.00) scale(1.00 1.00)">
<ellipse cx="325" cy="390" rx="5" ry="5"  /> 
 <text x="325" y="377" style="font-family:Arial; font-weight:bold; font-style:normal; font-size:10pt; fill:#000000; fill-opacity:1.00; stroke:#000000; stroke-opacity:1.00; stroke-width:0;"  transform="rotate( -0.00 325 377 )  " ></text> 
 <text x="325" y="395" style="font-family:Arial; font-weight:bold; font-style:normal; font-size:10pt; fill:#000000; fill-opacity:1.00; stroke:#000000; stroke-opacity:1.00; stroke-width:0;"  transform="rotate( -0.00 325 395 )  " ></text> 
 <text x="350" y="395" style="font-family:Arial; font-weight:bold; font-style:normal; font-size:9pt; fill:#FF0000; fill-opacity:1.00; stroke:#FF0000; stroke-opacity:1.00; stroke-width:0;"  transform="rotate( -0.00 350 395 )  " >1</text> 
 <text x="368" y="395" style="font-family:Arial; font-weight:bold; font-style:normal; font-size:9pt; fill:#0000FF; fill-opacity:1.00; stroke:#0000FF; stroke-opacity:1.00; stroke-width:0;"  transform="rotate( -0.00 368 395 )  " >3</text> 
</g>
<g style="fill:#000000; fill-opacity:1.00; stroke:#FF0000; stroke-opacity:1.00; stroke-linecap:round; stroke-linejoin:round; stroke-width:4" 
   transform="translate(0.00 0.00) scale(1.00 1.00)">
<path d="M30 265 L90 465" /> 
<path d="M90 465 L150 465" /> 
</g>
<g style="fill:#000000; fill-opacity:1.00; stroke:#000000; stroke-opacity:1.00; stroke-linecap:round; stroke-linejoin:round; stroke-width:2" 
   transform="translate(0.00 0.00) scale(1.00 1.00)">
<path d="M30 265 L30 265" /> 
 <text x="93" y="458" style="font-family:Arial; font-weight:bold; font-style:normal; font-size:10pt; fill:#FF0000; fill-opacity:1.00; stroke:#FF0000; stroke-opacity:1.00; stroke-width:0;"  transform="rotate( -0.00 93 458 )  " >offer_4</text> 
 <text x="93" y="464" style="font-family:Arial; font-weight:bold; font-style:normal; font-size:10pt; fill:#FF0000; fill-opacity:1.00; stroke:#FF0000; stroke-opacity:1.00; stroke-width:0;"  transform="rotate( -0.00 93 464 )  " ></text> 
</g>
<g style="fill:#0000FF; fill-opacity:1.00; stroke:#0000FF; stroke-opacity:1.00; stroke-linecap:round; stroke-linejoin:round; stroke-width:3" 
   transform="translate(0.00 0.00) scale(1.00 1.00)">
<ellipse cx="155" cy="465" rx="5" ry="5"  /> 
 <text x="155" y="452" style="font-family:Arial; font-weight:bold; font-style:normal; font-size:10pt; fill:#0000FF; fill-opacity:1.00; stroke:#0000FF; stroke-opacity:1.00; stroke-width:0;"  transform="rotate( -0.00 155 452 )  " ></text> 
 <text x="143" y="489" style="font-family:Arial; font-weight:bold; font-style:normal; font-size:10pt; fill:#0000FF; fill-opacity:1.00; stroke:#0000FF; stroke-opacity:1.00; stroke-width:0;"  transform="rotate( -0.00 143 489 )  " >2:5</text> 
</g>
<g style="fill:#0000FF; fill-opacity:1.00; stroke:#0000FF; stroke-opacity:1.00; stroke-linecap:round; stroke-linejoin:round; stroke-width:4" 
   transform="translate(0.00 0.00) scale(1.00 1.00)">
<path d="M160 465 L220 440" /> 
<path d="M220 440 L320 440" /> 
</g>
<g style="fill:#0000FF; fill-opacity:1.00; stroke:#000000; stroke-opacity:1.00; stroke-linecap:round; stroke-linejoin:round; stroke-width:2" 
   transform="translate(0.00 0.00) scale(1.00 1.00)">
<path d="M160 465 L160 465" /> 
 <text x="223" y="433" style="font-family:Arial; font-weight:bold; font-style:normal; font-size:10pt; fill:#0000FF; fill-opacity:1.00; stroke:#0000FF; stroke-opacity:1.00; stroke-width:0;"  transform="rotate( -0.00 223 433 )  " >accept_FALSE</text> 
 <text x="223" y="439" style="font-family:Arial; font-weight:bold; font-style:normal; font-size:10pt; fill:#0000FF; fill-opacity:1.00; stroke:#0000FF; stroke-opacity:1.00; stroke-width:0;"  transform="rotate( -0.00 223 439 )  " ></text> 
</g>
<g style="fill:#000000; fill-opacity:1.00; stroke:#000000; stroke-opacity:1.00; stroke-linecap:round; stroke-linejoin:round; stroke-width:3" 
   transform="translate(0.00 0.00) scale(1.00 1.00)">
<ellipse cx="325" cy="440" rx="5" ry="5"  /> 
 <text x="325" y="427" style="font-family:Arial; font-weight:bold; font-style:normal; font-size:10pt; fill:#000000; fill-opacity:1.00; stroke:#000000; stroke-opacity:1.00; stroke-width:0;"  transform="rotate( -0.00 325 427 )  " ></text> 
 <text x="325" y="445" style="font-family:Arial; font-weight:bold; font-style:normal; font-size:10pt; fill:#000000; fill-opacity:1.00; stroke:#000000; stroke-opacity:1.00; stroke-width:0;"  transform="rotate( -0.00 325 445 )  " ></text> 
 <text x="350" y="445" style="font-family:Arial; font-weight:bold; font-style:normal; font-size:9pt; fill:#FF0000; fill-opacity:1.00; stroke:#FF0000; stroke-opacity:1.00; stroke-width:0;"  transform="rotate( -0.00 350 445 )  " >0</text> 
 <text x="368" y="445" style="font-family:Arial; font-weight:bold; font-style:normal; font-size:9pt; fill:#0000FF; fill-opacity:1.00; stroke:#0000FF; stroke-opacity:1.00; stroke-width:0;"  transform="rotate( -0.00 368 445 )  " >0</text> 
</g>
<g style="fill:#000000; fill-opacity:1.00; stroke:#0000FF; stroke-opacity:1.00; stroke-linecap:round; stroke-linejoin:round; stroke-width:4" 
   transform="translate(0.00 0.00) scale(1.00 1.00)">
<path d="M160 465 L220 490" /> 
<path d="M220 490 L320 490" /> 
</g>
<g style="fill:#000000; fill-opacity:1.00; stroke:#000000; stroke-opacity:1.00; stroke-linecap:round; stroke-linejoin:round; stroke-width:2" 
   transform="translate(0.00 0.00) scale(1.00 1.00)">
<path d="M160 465 L160 465" /> 
 <text x="223" y="483" style="font-family:Arial; font-weight:bold; font-style:normal; font-size:10pt; fill:#0000FF; fill-opacity:1.00; stroke:#0000FF; stroke-opacity:1.00; stroke-width:0;"  transform="rotate( -0.00 223 483 )  " >accept_TRUE</text> 
 <text x="223" y="489" style="font-family:Arial; font-weight:bold; font-style:normal; font-size:10pt; fill:#0000FF; fill-opacity:1.00; stroke:#0000FF; stroke-opacity:1.00; stroke-width:0;"  transform="rotate( -0.00 223 489 )  " ></text> 
</g>
<g style="fill:#000000; fill-opacity:1.00; stroke:#000000; stroke-opacity:1.00; stroke-linecap:round; stroke-linejoin:round; stroke-width:3" 
   transform="translate(0.00 0.00) scale(1.00 1.00)">
<ellipse cx="325" cy="490" rx="5" ry="5"  /> 
 <text x="325" y="477" style="font-family:Arial; font-weight:bold; font-style:normal; font-size:10pt; fill:#000000; fill-opacity:1.00; stroke:#000000; stroke-opacity:1.00; stroke-width:0;"  transform="rotate( -0.00 325 477 )  " ></text> 
 <text x="325" y="495" style="font-family:Arial; font-weight:bold; font-style:normal; font-size:10pt; fill:#000000; fill-opacity:1.00; stroke:#000000; stroke-opacity:1.00; stroke-width:0;"  transform="rotate( -0.00 325 495 )  " ></text> 
 <text x="350" y="495" style="font-family:Arial; font-weight:bold; font-style:normal; font-size:9pt; fill:#FF0000; fill-opacity:1.00; stroke:#FF0000; stroke-opacity:1.00; stroke-width:0;"  transform="rotate( -0.00 350 495 )  " >0</text> 
 <text x="368" y="495" style="font-family:Arial; font-weight:bold; font-style:normal; font-size:9pt; fill:#0000FF; fill-opacity:1.00; stroke:#0000FF; stroke-opacity:1.00; stroke-width:0;"  transform="rotate( -0.00 368 495 )  " >4</text> 
</g> 
</svg> 
